<?xml version="1.0" encoding="UTF-8"?>
<svg id="Capa_1" xmlns="http://www.w3.org/2000/svg" version="1.1" viewBox="0 0 841.9 595.3">
  <!-- Generator: Adobe Illustrator 29.6.1, SVG Export Plug-In . SVG Version: 2.1.1 Build 9)  -->
  <defs>
    <style>
      .st0 {
        fill: #be2918;
      }

      .st1 {
        fill: #e20613;
      }

      .st2 {
        fill: #030404;
      }
    </style>
  </defs>
  <path class="st1" d="M406.51,378.46c-.24.31-.08.77.92,1.56,2.3,1.5,4.04,3.74,6.55,4.91,1.01,2.34,2.87,4.03,4.54,5.88-6.97-1.57-13.77-3.75-20.31-6.84-6.9-3.27-13.28-7.31-18.09-13.42-1.3-1.65-2.59-3.3-3.38-5.27-.25-.64-.68-1.35.01-1.92.7-.58,1.35.06,1.88.4,2.69,1.71,5.29,3.56,8.01,5.23,6.41,3.93,13.04,7.05,19.88,9.49Z"/>
  <g>
    <path class="st2" d="M327.7,443.25c-5.37-.42-10.7-1.24-15.91-2.52-10.71-2.65-21.31-5.73-31.51-10-1.1-.46-2.21-.93-3.23-1.53-.76-.45-1.51-1.05-1.35-2.13.16-1.11.81-1.75,1.91-2.01,2.12-.51,4.24-1.03,6.35-1.61,14.47-3.97,28.34-9.35,40.91-17.69,1.73-1.15,3.41-2.34,5.04-3.59,4.77-3.66,9.07-7.84,12.56-12.87,5.26-7.6,7.23-15.59,5.88-23.95-.42-2.58-1.15-5.19-2.21-7.84-2.54-6.38-5.49-12.59-7.84-19.05-2.31-6.34-4.27-12.77-5.81-19.3-1.08-4.59-2.6-13.92-2.67-14.37,0-.01,0-.02,0-.03-.07-.99-.15-1.98-.26-2.98,0-.07,0-.14.03-.2,4.5-11.06,9.87-21.54,22.39-30.96,2.19-1.65,4.6-3.26,7.26-4.84,1.74-1.04,3.59-2.06,5.57-3.06,2.53-1.29,5.25-2.56,8.19-3.8,3.73-1.57,7.81-3.1,12.27-4.58.45-.15.36-.81-.12-.82-6.17-.19-13.7.04-16.56.25-3.24.24-2.77-1.27-1.89-2.48.87-1.18,10.04-14.84,37.81-26.88.42-.18.29-.82-.17-.81-24.9.25-42.19,8.61-55.76,20.47-2.06,1.79-4.03,3.67-5.92,5.61-1.88,1.91-3.68,3.89-5.43,5.92-1.47,1.7-2.89,3.42-4.28,5.18-10.59,13.32-19.32,28.03-29.57,40.19-3.71,4.4-7.61,8.47-11.88,12-.98.81-1.97,1.59-2.99,2.34-1.44,1.06-2.91,2.07-4.43,3.01-2.2,1.36-4.51,2.58-6.92,3.65-2.96,1.31-6.09,2.38-9.42,3.17-9.86,2.37-21.49,2.35-35.66-.96-.22-.05-.46.07-.51.28,0,.01,0,.03,0,.04-.05.17,0,.35.13.46,9.5,7.66,18.03,14.27,35.63,14.27.79,0,1.59-.02,2.38-.07.98-.06,1.97-.16,2.95-.28,1.56-.21,3.13-.49,4.68-.85h0c3.41-.78,6.76-1.9,9.96-3.2.26-.11.52-.22.79-.33,2.66-1.11,5.21-2.35,7.59-3.62,8.82-4.7,15.28-9.85,16.52-10.98,1.14-1.03,4.29-3.66,6.11-1.41.71.88,2.27,7.49,3.09,9.92,2.59,7.69,5.51,15.28,8.71,22.8,1.83,4.31,3.74,8.59,5.62,12.87.42.96.75,1.92.99,2.86,1.16,4.53.33,8.9-2.15,13.17-1.62,2.79-3.49,5.38-5.63,7.77-.91,1.03-1.88,2.02-2.9,2.98-5.87,5.52-12.6,9.78-19.75,13.37-13.94,7-28.69,11.69-43.86,15.12-5.24,1.18-10.5,2.24-15.75,3.38-2.87.63-4.41,2.59-4.96,5.35-.55,2.78.28,5.1,2.58,6.86,2.34,1.79,5.08,2.72,7.82,3.58,8.11,2.54,16.51,3.61,24.89,4.76,10.66,1.27,45.81,8.4,52.06,4.57,1.12-.69,2.65-1.52,2.01-3.26-.56-1.51-2.11-1.2-3.38-1.3Z"/>
    <path class="st2" d="M636.13,378.14c-1.35-4.17-3.44-8.08-5.74-11.81-2.48-4.03-6.17-6.42-10.95-6.95-4.46-.49-8.91-.95-13.37-1.44-6.64-.73-13.27-1.47-19.91-2.19-4.13-.45-8.27-.92-12.41-1.33-.62-.06-1.24-.12-1.86-.18-.19-.02-.37-.04-.54-.08-1-.19-1.73-.67-2.36-1.62-1.62-2.46-3.87-4.27-6.4-5.75-7.36-4.31-15.2-5.64-23.27-5.54-.17,0-.34,0-.51,0-2.49.05-4.99.23-7.51.5-3.32.36-6.5,1.41-9.53,2.8-.23.1-.49,0-.58-.24-.26-.75-.02-1.43.1-2.05.8-4.06,1.46-8.13,2.02-12.22.09-.67.18-1.33.26-1.99.58-4.54,1.03-9.09,1.42-13.65.15-1.71.28-3.43.39-5.14.07-1,.13-2.01.18-3.02.77-13.63.5-27.25-1.3-40.84-.59-4.49-1.36-8.94-2.34-13.33-.03-.15.02-.31.14-.41,19.7-16.35,24.75-47.71,16.12-71.54-2.51-6.84-5.8-13.17-11.39-18.1,0-5.92.35-7.16,0-10.75-5.58-52.25-55.05-87.46-108.48-66.74-37.94,13.4-54.84,52.32-81.1,79.51-11.36,11.59-26.17,18.47-42.1,20.88-.02,0-.05,0-.07.02-2.7.96-52.72,10.88-67.39,21.68-15.05,11.61-23.61,31.49-22.78,50.36,1.29,13.44,5.24,27.26,14.45,37.47,4.67,5.37,18.58,18.15,43.52,18.7.33,0,.66.02.99.02h.04c2.59-.22,5.22-.53,7.86-.94,4.11-.63,8.24-1.51,12.22-2.72,2.58-.78,5.1-1.7,7.52-2.78,2.61-1.16,5.1-2.51,7.42-4.07.4-.27.1-.89-.36-.75-2.26.66-4.52,1.13-6.78,1.44-2.4.33-4.79.47-7.16.43-5.05-.08-10.01-.96-14.76-2.52-2.87-.94-5.67-2.13-8.37-3.54-12.89-6.74-23.47-18.51-28.9-32.33-6.77-16.56-7.19-39.64,9.3-50.55,24.33-15.32,53.92-10.2,80.33-19.13.36-.12.69.25.51.59-3.98,7.73-9.12,13.47-17.29,16.77-.42.17-.31.8.14.81,3.65.11,7.24-.67,10.72-2.14,16.15-6.79,30.25-28.21,40.14-43.01,1.56-2.33,3.01-4.5,4.35-6.42,16.28-25.1,38.01-49.82,67.71-58.31,53.76-17.52,102.94,47.46,76.54,94.42-10.89,18.79-22.82,27.8-30.47,31.03-.43.18-.29.83.18.81,10.97-.4,19.72-4.08,26.38-8.62.21-.14.49-.07.61.14.67,1.21,1.32,2.43,1.94,3.65,4,7.87,7.11,16.12,9.18,24.8.28,1.15.53,2.31.77,3.48.22,1.06.42,2.12.62,3.18,1.41,7.58,2.32,15.21,2.49,22.93.16,7.72.21,15.45-.11,23.16-.04,1.17-.1,2.34-.17,3.51-.15,2.78-.36,5.56-.64,8.34-.28,2.83-.61,5.64-1,8.46-.11.81-.22,1.62-.34,2.43-1.55,10.49-3.82,20.83-6.74,31.06-1.31,4.6-2.85,9.13-4.09,13.74-.71,2.62-2.24,4.33-4.55,5.58-4.68,2.53-9.69,4.13-14.81,5.4-12.85,3.19-25.92,4.63-39.13,4.07-13.38-.57-26.33-2.72-38.65-7.12-6.83-2.43-13.47-5.56-19.88-9.49-2.71-1.67-5.31-3.52-8.01-5.23-.53-.33-1.18-.98-1.88-.4-.69.57-.26,1.28-.01,1.92.78,1.98,2.08,3.63,3.38,5.27,4.82,6.11,11.19,10.15,18.09,13.42,6.54,3.1,13.34,5.28,20.31,6.84,3.97.9,7.99,1.59,12.05,2.16,10.33,1.43,20.7,1.77,31.06,1.11,10.84-.7,21.49-2.61,31.98-5.56,10.26-2.88,19.48-8.02,28.97-12.58,1.54-.74,2.35-2.05,2.23-3.89-.15-2.31.39-4.57,1-6.77,1.55-5.61,6.89-11.08,14.59-12.01,2.12-.25,4.23-.34,6.33-.25.5.02,1.01.05,1.51.09,2.64.21,5.25.69,7.85,1.44.1.03.2.03.29.06,3.78,1.19,7,2.9,7.29,7.38.01.2.16.37.37.4,3.09.4,6.18.81,9.27,1.21,1.1.14,2.21.29,3.31.43,1.82.24,3.63.48,5.45.71,7.31.95,14.63,1.9,21.95,2.84,5.24.67,10.48,1.36,15.73,1.96,3.32.38,5.87,1.61,7,5.07.59,1.79,1.57,3.45,2.32,5.19.27.63.48,1.33.51,2.01.1,2.1-1.17,3.39-3.27,3.28-3.28-.18-6.57-.33-9.83-.7-7.53-.86-15.05-1.8-22.55-2.81-5.32-.71-10.62-1.53-15.93-2.3-1-.15-2.01-.29-3.01-.43-.49-.07-.99-.12-1.48-.16-.89-.07-1.79-.11-2.68-.16-.3-.02-.56.14-.69.46-.19.49.13.81.47.96.54.23,1.14.34,1.71.48.32.07.64.15.95.23,1.53.37,3.07.73,4.6,1.1,13.86,3.31,27.72,6.62,41.57,9.94,1.53.37,3.49.26,4.42,1.46.88,1.12-.03,2.87-.14,4.34-.77,10.15-1.49,20.3-2.49,30.43-1.42,14.4-2.4,28.83-3.62,43.25-.48,5.66-.74,11.35-1.63,16.98-.4,2.53-.91,3.07-3.41,3.23-.8.05-1.6.02-2.4,0-13.77-.3-27.55-.52-41.32-.93-7.49-.22-14.97-.46-22.46-.45-.9,0-1.77-.14-2.66-.32-3-.6-3.01-.56-2.91-3.4.43-11.73.84-23.45,1.28-35.17.12-3.19.24-6.38.37-9.57.02-.65.05-1.29.07-1.94.22-5.72.51-11.43.71-17.14.12-3.49.2-6.99.21-10.49,0-.27,0-.53,0-.8,0-.65.23-1.33-.11-2.03-.11-.22-.39-.32-.6-.18-.98.63-.97,1.77-1.1,2.76-.18,1.38-.36,2.77-.54,4.15-.48,3.71-.95,7.41-1.41,11.12-.33,2.63-.66,5.25-.99,7.87-.91,7.22-1.8,14.45-2.71,21.67-.2,1.59-.4,3.17-.6,4.76-.11.92-.23,1.83-.35,2.75-.79,6.31-1.6,12.61-2.42,18.92-.17,1.35-.4,2.69-.64,4.17-.04.24-.26.4-.5.35-1.7-.32-3.08-1.24-4.57-1.8-1.21-.45-2.34-1.11-3.54-1.6-3.15-1.28-3.08-1.25-2.57-4.73.05-.37.11-.75.16-1.13.27-1.88.54-3.76.8-5.64,1-7.03,1.97-14.06,2.93-21.09.12-.84.27-1.71.11-2.56-.08-.41-.66-.48-.8-.09,0,0,0,0,0,0-3.12,9.15-6.24,18.3-9.36,27.45-.16.47-.39.92-.52,1.4-.05.17-.1.32-.17.45-.25.52-.62.74-1.13.68-.22-.02-.45-.1-.71-.22-1.72-.79-3.51-1.45-5.16-2.37-2.1-1.16-2.53-2.41-1.81-4.77.31-1.05.78-2.05,1.15-3.08,2.9-8.03,5.83-16.05,8.75-24.08.86-2.36,1.71-4.72,2.57-7.07,3.71-10.24,7.37-20.5,10.9-30.81,2.07-6.06,6.27-8.92,11.51-11.12,2.49-1.04,5.13-1.59,7.83-1.9.92-.1,1.85-.22,2.75-.46.55-.15,1.08-.34,1.59-.61,2.05-1.1,2.46-2.3,1.49-4.42-.49-1.08-1.14-2.05-1.82-3-.71-1-1.46-1.97-2.11-3-.65-1.04-1.18-2.05-1-3.35.25-1.73.67-2.19,2.46-2.38.31-.03.61-.07.92-.1.68-.07,1.36-.13,2.05-.21.04,0,.07-.03.12-.07.18-.17.19-.45,0-.62-.43-.41-1.12-.42-1.62-.63-.22-.1-.44-.2-.64-.31-2.51-1.39-3.1-3.77-1.44-6.42.17-.28.36-.54.56-.78.65-.81,1.44-1.46,2.3-2.04.53-.36,1.09-.69,1.66-1.01.84-.47,1.67-.94,2.5-1.42.38-.22.22-.8-.22-.79-1.66.05-3.24.31-4.72.83-.77.27-1.52.62-2.23,1.04-1.19.71-2.28,1.64-3.25,2.83-3.01,3.69-3.96,8.02-2.48,12.66.73,2.27,1.78,4.44,2.52,6.71.75,2.3-.07,3.39-2.34,3.01-4.02-.68-7.58-2.38-10.42-5.4-.96-1.03-1.43-2.27-1.58-3.96-.03-.34-.43-.5-.69-.28-1.96,1.65-3.59,3.02-5.21,4.41-15.45,13.29-33.32,21.49-53.23,25.53-12,2.43-24.11,3.21-36.3,2.8-1.27-.04-2.54-.11-3.81-.21-.45-.03-.91-.07-1.35-.11-4.95-.43-9.85-1.22-14.71-2.26,0,0-.01,0-.02,0-3.18-.68-6.35-1.47-9.5-2.32-1.27-.34-2.54-.71-3.79-1.1-5.87-1.8-11.6-3.99-17.28-6.32-.55-.22-1.09-.54-1.65-.67-.73-.15-1.62-.59-2.04.51-.34.92.15,1.48.88,1.97,3.4,2.28,6.91,4.37,10.56,6.2,4.16,2.09,8.41,3.91,12.75,5.48.96.35,1.92.68,2.88,1,5.95,1.98,12.06,3.47,18.32,4.49,3.6.58,7.22,1.08,10.85,1.41.13.01.25.02.38.04,4.28.38,8.58.53,12.9.33,9.29-.42,18.41-1.78,27.17-5.08.04-.01.09-.03.13-.03.34-.05.58.33.42.63-4.62,8.32-9.73,16.53-15.18,23.92-5.45,7.39-13.7,15.92-20.38,21.72-8.79,7.64-17.87,14.31-27.91,19.72-14.43-15.92-30.74-29.68-49.85-40.22-14.5-6.87-30.35-13.5-46.96-12.18-.56.05-1.04.4-1.25.91,0,0,0,.02-.01.03-.35.84.15,1.8,1.04,2,24.69,5.54,45.05,17.37,55.88,28.44,1.48,1.51,2.94,2.99,4.4,4.47,2.85,2.89,5.67,5.75,8.48,8.79,4.11,4.44,8.22,9.23,12.42,14.97,2.2,3.01,4.44,6.29,6.71,9.91,3.03,4.82,6.13,10.26,9.34,16.51,8.4-10.29,14.16-21.24,23.2-30.77,2.58-3.16,8.79-9.68,14.33-15.37,7.88-7.16,19.39-20.52,22.33-25.3,0,0-.02,0-.02,0,0-.01.02-.02.02-.03,5.58-7.78,10.48-16,14.76-24.63.66-1.33,1.51-2.09,2.95-2.65,5.1-1.98,10.14-4.12,14.97-6.71.55-.3,1.09-.79,1.85-.93.32-.06.59.26.47.57-.31.82-.58,1.56-.84,2.3-3.59,10.57-7.18,21.14-10.76,31.71-.6,1.75-1.19,3.51-1.78,5.26-.84,2.47-1.68,4.95-2.52,7.43-.08.23-.16.47-.24.7-.53,1.57-1.06,3.13-1.58,4.7-1.13,3.38-2.26,6.76-3.38,10.14,0,.02,0,.03-.02.04-.46,1.4-.74,2.78-.85,4.11-.33,4.15.99,7.91,3.42,10.79,1.08,1.29,2.38,2.4,3.85,3.29.75.46,1.54.86,2.37,1.2,8.83,3.61,17.57,7.46,26.32,11.28,3.71,1.62,7.54,2.47,11.59,2.47,14.48,0,28.95.08,43.43.11,8.99.02,17.97.04,26.96,0,2.18-.01,4.39.08,6.53-.58,6.8-2.12,10.55-7.28,10.92-14.77.38-7.77.83-15.53,1.33-23.29.67-10.35,1.44-20.7,2.11-31.04.85-13.03,1.64-26.07,2.42-39.11.05-.92.51-1.39,1.1-1.97,4.58-4.45,5.45-9.86,3.57-15.7ZM518.62,237.53c-.12.4-.67.41-.81.02-.66-1.89-1.38-3.77-2.15-5.64-1.96-4.75-4.13-9.3-6.53-13.64-.34-.62-.69-1.23-1.05-1.85-.1-.17-.06-.38.07-.52,4.5-4.33,7.39-8.58,8.75-10.98.18-.32.66-.27.77.08,3.69,11.64,3.92,22.49.94,32.52Z"/>
  </g>
  <g>
    <path class="st2" d="M437.93,288.27c-1.06,3.82-2.95,7.18-5.8,9.96-.84.82-1.65,1.75-3.46,2.01,1.36-3.38,2.08-6.57,2.26-9.84.57-10.39-1.41-20.24-6.7-29.28-.76-1.29-1.6-2.52-2.57-3.63-1.18-1.35-2.53-2.54-4.12-3.5-3.99-2.4-7.64-1.87-10.7,1.64-.52.59-.98,1.21-1.39,1.84-1.47,2.28-2.34,4.85-2.85,7.58-1.02,5.35-1.21,10.7-.13,16.06.1.48.09.99.13,1.52-1.07.15-1.11-.69-1.33-1.26-2.84-7.51-4.7-15.23-4.51-23.25.01-.53.03-1.06.06-1.59.3-5.28,1.37-10.48,4-15.21.34-.61.67-1.23,1.07-1.8,1.13-1.59,2.35-2.91,3.65-3.94,4.3-3.43,9.47-3.72,15.35-.45.35.19.69.4,1.03.61,3.42,2.16,6.03,5.19,8.29,8.54,2.87,4.25,4.99,8.76,6.53,13.5,1.14,3.53,1.95,7.18,2.5,10.94.96,6.64.5,13.11-1.29,19.52Z"/>
    <path class="st2" d="M501.97,270.6c-.55,5.01-1.71,9.82-3.91,14.26-.79,1.61-1.72,3.16-2.81,4.66-2,2.76-3.87,4.26-6.55,5.24.81-3.01,1.5-5.88,1.74-8.85.6-7.53.33-14.94-2.65-22.06-.82-1.96-1.8-3.8-3.18-5.38-3.02-3.47-7.24-3.58-10.46-.29-.16.16-.31.33-.46.49-1.65,1.86-2.72,4.06-3.53,6.44-.4,1.18-.41,2.54-1.67,3.75-.22-5.73.23-11.17,1.74-16.28h0c1.23-4.16,3.15-8.11,5.97-11.81.12-.16.25-.31.38-.46,5.57-6.31,12.59-6.68,17.87-1.06h0c.54.57,1.05,1.2,1.55,1.89,3.67,5.12,5.48,10.98,6.11,17.25.41,4.08.32,8.15-.12,12.2Z"/>
    <path class="st2" d="M495.53,325.79c-1.77,5.73-4.56,10.31-8.97,13.76-4.62,3.61-9.88,5.71-15.72,6.78-16.04,2.94-30.14-1.32-42.94-10.87-2.72-2.04-5.01-4.57-7.41-6.96-.76-.76-1.41-1.69-2.76-2.14-.32.72-.54,1.27-.81,1.8-.26.53-.47,1.15-1.19,1.2-.87.06-1.19-.65-1.51-1.25-.79-1.48-.06-2.76.79-3.86.89-1.16,2.19-1.31,3.51-.7.63.29,1.21.69,1.78,1.09,8.31,5.87,17.4,10.05,27.34,12.23,14.86,3.26,29.07,2.07,42.06-6.63,1.9-1.27,3.64-2.77,5.82-4.46Z"/>
  </g>
  <path class="st0" d="M626.31,385.08c-3.28-.18-6.57-.33-9.83-.7-7.53-.86-15.05-1.8-22.55-2.81-6.32-.85-12.63-1.84-18.94-2.73-1.38-.19-2.78-.24-4.17-.32-.3-.02-.56.14-.69.46-.19.49.13.81.47.96.54.23,1.14.34,1.71.48,15.71,3.75,31.42,7.5,47.12,11.27,1.53.37,3.49.26,4.42,1.46.88,1.12-.03,2.87-.14,4.34-.77,10.15-1.49,20.3-2.49,30.43-1.42,14.4-2.4,28.83-3.62,43.25-.48,5.66-.74,11.35-1.63,16.98-.4,2.53-.91,3.07-3.41,3.23-.8.05-1.6.02-2.4,0-13.77-.3-27.55-.52-41.32-.93-7.49-.22-14.97-.46-22.46-.45-.9,0-1.77-.14-2.66-.32-3-.6-3.01-.56-2.91-3.4.57-15.56,1.11-31.12,1.72-46.69.37-9.48.92-18.94.92-28.43,0-.76.32-1.58-.35-2.4-1.34.56-1.31,1.85-1.45,2.95-1.01,7.71-1.97,15.43-2.94,23.14-1.11,8.81-2.2,17.62-3.31,26.43-.91,7.22-1.83,14.45-2.76,21.67-.19,1.47-.45,2.94-.7,4.59-1.91-.22-3.39-1.26-5.01-1.86-1.21-.45-2.34-1.11-3.54-1.6-3.15-1.28-3.08-1.25-2.57-4.73,1.34-9.28,2.63-18.56,3.89-27.85.13-.97.31-1.98,0-2.95-.34-.09-.61,0-.71.31-3.12,9.15-6.24,18.3-9.36,27.45-.16.47-.39.92-.52,1.4-.31,1.13-.97,1.4-2.01.92-1.72-.79-3.51-1.45-5.16-2.37-2.1-1.16-2.53-2.41-1.81-4.77.31-1.05.78-2.05,1.15-3.08,7.45-20.64,15.11-41.2,22.22-61.96,2.07-6.06,6.27-8.92,11.51-11.12,2.49-1.04,5.13-1.59,7.83-1.9,1.48-.17,2.98-.35,4.33-1.07,2.05-1.1,2.46-2.3,1.49-4.42-1-2.2-2.66-3.98-3.93-6-.65-1.04-1.18-2.05-1-3.35.25-1.73.67-2.19,2.46-2.38.99-.11,1.98-.19,2.96-.3.07,0,.14-.11.38-.32-.36-.8-1.27-.74-1.88-1.01-3.04-1.32-3.87-3.88-2.09-6.74,1.09-1.74,2.76-2.84,4.51-3.83,1.29-.73,2.57-1.46,3.85-2.2,1.58.18,3.15.36,4.73.53,6.12.8,12.25,1.6,18.37,2.4,7.31.95,14.63,1.9,21.95,2.84,5.24.67,10.48,1.36,15.73,1.96,3.32.38,5.87,1.61,7,5.07.59,1.79,1.57,3.45,2.32,5.19.27.63.48,1.33.51,2.01.1,2.1-1.17,3.39-3.27,3.28Z"/>
</svg>